<?xml version="1.0" encoding="UTF-8" standalone="no"?>
<!DOCTYPE svg PUBLIC "-//W3C//DTD SVG 1.1//EN"
 "http://www.w3.org/Graphics/SVG/1.1/DTD/svg11.dtd">
<!-- Generated by graphviz version 2.38.0 (20140413.2041)
 -->
<!-- Title: G Pages: 1 -->
<svg width="565pt" height="392pt"
 viewBox="0.00 0.00 564.84 392.00" xmlns="http://www.w3.org/2000/svg" xmlns:xlink="http://www.w3.org/1999/xlink">
<g id="graph0" class="graph" transform="scale(1 1) rotate(0) translate(4 388)">
<title>G</title>
<polygon fill="white" stroke="none" points="-4,4 -4,-388 560.845,-388 560.845,4 -4,4"/>
<!-- 48046400 -->
<g id="node1" class="node"><title>48046400</title>
<ellipse fill="none" stroke="black" cx="167.845" cy="-366" rx="57.6901" ry="18"/>
<text text-anchor="middle" x="167.845" y="-362.3" font-family="Times,serif" font-size="14.00">48046400</text>
</g>
<!-- 48253298 -->
<g id="node7" class="node"><title>48253298</title>
<ellipse fill="none" stroke="black" cx="304.845" cy="-279" rx="57.6901" ry="18"/>
<text text-anchor="middle" x="304.845" y="-275.3" font-family="Times,serif" font-size="14.00">48253298</text>
</g>
<!-- 48046400&#45;&#45;48253298 -->
<g id="edge1" class="edge"><title>48046400&#45;&#45;48253298</title>
<path fill="none" stroke="blue" d="M192.655,-349.607C217.329,-334.298 254.985,-310.935 279.757,-295.566"/>
<text text-anchor="middle" x="259.345" y="-318.8" font-family="Times,serif" font-size="14.00">68B</text>
</g>
<!-- 4764149 -->
<g id="node8" class="node"><title>4764149</title>
<ellipse fill="none" stroke="black" cx="185.845" cy="-192" rx="51.9908" ry="18"/>
<text text-anchor="middle" x="185.845" y="-188.3" font-family="Times,serif" font-size="14.00">4764149</text>
</g>
<!-- 48046400&#45;&#45;4764149 -->
<g id="edge2" class="edge"><title>48046400&#45;&#45;4764149</title>
<path fill="none" stroke="green" d="M139.016,-350.366C119.817,-338.815 96.2706,-320.7 85.8449,-297 79.4023,-282.354 79.4023,-275.646 85.8449,-261 97.7647,-233.903 126.89,-216.027 150.652,-205.434"/>
<text text-anchor="middle" x="99.8449" y="-275.3" font-family="Times,serif" font-size="14.00">d51</text>
</g>
<!-- 48046400&#45;&#45;4764149 -->
<g id="edge3" class="edge"><title>48046400&#45;&#45;4764149</title>
<path fill="none" stroke="blue" d="M160.573,-347.911C152.737,-327.174 142.336,-291.232 149.845,-261 154.514,-242.202 165.443,-222.883 174.043,-209.664"/>
<text text-anchor="middle" x="164.345" y="-275.3" font-family="Times,serif" font-size="14.00">68B</text>
</g>
<!-- 48046400&#45;&#45;4764149 -->
<g id="edge4" class="edge"><title>48046400&#45;&#45;4764149</title>
<path fill="none" stroke="red" d="M171.044,-348.014C173.518,-334.295 176.849,-314.466 178.845,-297 182.317,-266.615 184.256,-231.024 185.172,-210.342"/>
<text text-anchor="middle" x="196.845" y="-275.3" font-family="Times,serif" font-size="14.00">160</text>
</g>
<!-- 16175648 -->
<g id="node2" class="node"><title>16175648</title>
<ellipse fill="none" stroke="black" cx="453.845" cy="-279" rx="57.6901" ry="18"/>
<text text-anchor="middle" x="453.845" y="-275.3" font-family="Times,serif" font-size="14.00">16175648</text>
</g>
<!-- 23338983 -->
<g id="node4" class="node"><title>23338983</title>
<ellipse fill="none" stroke="black" cx="453.845" cy="-192" rx="57.6901" ry="18"/>
<text text-anchor="middle" x="453.845" y="-188.3" font-family="Times,serif" font-size="14.00">23338983</text>
</g>
<!-- 16175648&#45;&#45;23338983 -->
<g id="edge5" class="edge"><title>16175648&#45;&#45;23338983</title>
<path fill="none" stroke="blue" d="M453.845,-260.799C453.845,-246.052 453.845,-224.915 453.845,-210.175"/>
<text text-anchor="middle" x="467.345" y="-231.8" font-family="Times,serif" font-size="14.00">c88</text>
</g>
<!-- 16755330 -->
<g id="node3" class="node"><title>16755330</title>
<ellipse fill="none" stroke="black" cx="57.8449" cy="-192" rx="57.6901" ry="18"/>
<text text-anchor="middle" x="57.8449" y="-188.3" font-family="Times,serif" font-size="14.00">16755330</text>
</g>
<!-- 31332055 -->
<g id="node9" class="node"><title>31332055</title>
<ellipse fill="none" stroke="black" cx="185.845" cy="-105" rx="57.6901" ry="18"/>
<text text-anchor="middle" x="185.845" y="-101.3" font-family="Times,serif" font-size="14.00">31332055</text>
</g>
<!-- 16755330&#45;&#45;31332055 -->
<g id="edge7" class="edge"><title>16755330&#45;&#45;31332055</title>
<path fill="none" stroke="blue" d="M81.322,-175.41C104.417,-160.073 139.473,-136.794 162.517,-121.491"/>
<text text-anchor="middle" x="143.345" y="-144.8" font-family="Times,serif" font-size="14.00">be9</text>
</g>
<!-- 4514392 -->
<g id="node10" class="node"><title>4514392</title>
<ellipse fill="none" stroke="black" cx="57.8449" cy="-105" rx="51.9908" ry="18"/>
<text text-anchor="middle" x="57.8449" y="-101.3" font-family="Times,serif" font-size="14.00">4514392</text>
</g>
<!-- 16755330&#45;&#45;4514392 -->
<g id="edge6" class="edge"><title>16755330&#45;&#45;4514392</title>
<path fill="none" stroke="blue" d="M57.8449,-173.799C57.8449,-159.052 57.8449,-137.915 57.8449,-123.175"/>
<text text-anchor="middle" x="71.3449" y="-144.8" font-family="Times,serif" font-size="14.00">9c6</text>
</g>
<!-- 29578060 -->
<g id="node6" class="node"><title>29578060</title>
<ellipse fill="none" stroke="black" cx="453.845" cy="-105" rx="57.6901" ry="18"/>
<text text-anchor="middle" x="453.845" y="-101.3" font-family="Times,serif" font-size="14.00">29578060</text>
</g>
<!-- 23338983&#45;&#45;29578060 -->
<g id="edge9" class="edge"><title>23338983&#45;&#45;29578060</title>
<path fill="none" stroke="blue" d="M453.845,-173.799C453.845,-159.052 453.845,-137.915 453.845,-123.175"/>
<text text-anchor="middle" x="469.845" y="-144.8" font-family="Times,serif" font-size="14.00">BCF</text>
</g>
<!-- 23338983&#45;&#45;31332055 -->
<g id="edge10" class="edge"><title>23338983&#45;&#45;31332055</title>
<path fill="none" stroke="blue" d="M414.875,-178.64C364.064,-162.525 275.696,-134.497 224.861,-118.375"/>
<text text-anchor="middle" x="350.845" y="-144.8" font-family="Times,serif" font-size="14.00">747</text>
</g>
<!-- 30484570 -->
<g id="node11" class="node"><title>30484570</title>
<ellipse fill="none" stroke="black" cx="453.845" cy="-18" rx="57.6901" ry="18"/>
<text text-anchor="middle" x="453.845" y="-14.3" font-family="Times,serif" font-size="14.00">30484570</text>
</g>
<!-- 23338983&#45;&#45;30484570 -->
<g id="edge8" class="edge"><title>23338983&#45;&#45;30484570</title>
<path fill="none" stroke="blue" d="M477.05,-175.315C492.789,-163.148 512.241,-144.727 520.845,-123 526.736,-108.124 526.736,-101.876 520.845,-87 512.241,-65.2735 492.789,-46.8516 477.05,-34.685"/>
<text text-anchor="middle" x="540.845" y="-101.3" font-family="Times,serif" font-size="14.00">BCF</text>
</g>
<!-- 30222423 -->
<g id="node5" class="node"><title>30222423</title>
<ellipse fill="none" stroke="black" cx="319.845" cy="-105" rx="57.6901" ry="18"/>
<text text-anchor="middle" x="319.845" y="-101.3" font-family="Times,serif" font-size="14.00">30222423</text>
</g>
<!-- 30222423&#45;&#45;30484570 -->
<g id="edge11" class="edge"><title>30222423&#45;&#45;30484570</title>
<path fill="none" stroke="blue" d="M344.111,-88.6071C368.246,-73.298 405.077,-49.935 429.306,-34.5656"/>
<text text-anchor="middle" x="409.845" y="-57.8" font-family="Times,serif" font-size="14.00">21b</text>
</g>
<!-- 29578060&#45;&#45;30484570 -->
<g id="edge12" class="edge"><title>29578060&#45;&#45;30484570</title>
<path fill="none" stroke="blue" d="M453.845,-86.799C453.845,-72.0519 453.845,-50.9152 453.845,-36.1754"/>
<text text-anchor="middle" x="469.845" y="-57.8" font-family="Times,serif" font-size="14.00">BCF</text>
</g>
<!-- 48253298&#45;&#45;4764149 -->
<g id="edge13" class="edge"><title>48253298&#45;&#45;4764149</title>
<path fill="none" stroke="blue" d="M282.741,-262.211C261.232,-246.848 228.759,-223.653 207.429,-208.417"/>
<text text-anchor="middle" x="267.345" y="-231.8" font-family="Times,serif" font-size="14.00">68B</text>
</g>
<!-- 4764149&#45;&#45;31332055 -->
<g id="edge14" class="edge"><title>4764149&#45;&#45;31332055</title>
<path fill="none" stroke="blue" d="M185.845,-173.799C185.845,-159.052 185.845,-137.915 185.845,-123.175"/>
<text text-anchor="middle" x="199.845" y="-144.8" font-family="Times,serif" font-size="14.00">508</text>
</g>
</g>
</svg>
